<?xml version="1.0" encoding="utf-8"?>
<!-- Generator: Adobe Illustrator 23.0.1, SVG Export Plug-In . SVG Version: 6.00 Build 0)  -->
<svg version="1.1" id="OBJECTS" xmlns="http://www.w3.org/2000/svg" xmlns:xlink="http://www.w3.org/1999/xlink" x="0px" y="0px"
	 viewBox="0 0 1920 1080" style="enable-background:new 0 0 1920 1080;" xml:space="preserve">
<style type="text/css">
	.st0{fill:#D8DEE4;}
	.st1{fill:url(#SVGID_1_);}
	.st2{fill:url(#SVGID_2_);}
	.st3{fill:#F2F2F2;}
	.st4{fill:#174159;}
	.st5{fill:#BEC8D2;}
	.st6{fill:url(#SVGID_3_);}
	.st7{fill:#FAE54E;}
	.st8{fill:#FCEF95;}
	.st9{fill:#6736DC;}
	.st10{fill:#784DE0;}
	.st11{fill:#2E546A;}
	.st12{fill:#45677A;}
	.st13{font-family:'Lato-Bold';}
	.st14{font-size:11.4146px;}
	.st15{fill:#FFFFFF;}
	.st16{fill:url(#SVGID_4_);}
	.st17{fill:#6CA6F0;}
	.st18{fill:#4C93ED;}
	.st19{fill:#16569B;}
	.st20{fill:url(#SVGID_5_);}
	.st21{fill:url(#SVGID_6_);}
	.st22{fill:#F6F6F6;}
	.st23{fill:url(#SVGID_7_);}
	.st24{fill:#5620D8;}
	.st25{fill:url(#SVGID_8_);}
	.st26{fill:url(#SVGID_9_);}
	.st27{fill:url(#SVGID_10_);}
	.st28{fill:url(#SVGID_11_);}
	.st29{fill:url(#SVGID_12_);}
	.st30{fill:#2D80EA;}
	.st31{fill:url(#SVGID_13_);}
	.st32{fill:#E563C8;}
	.st33{fill:#E148BE;}
	.st34{fill:#C8D0D9;}
	.st35{fill:url(#SVGID_14_);}
	.st36{font-family:'Lato-Black';}
	.st37{font-size:26.1862px;}
	.st38{fill:#CBD3DB;}
	.st39{fill:url(#SVGID_15_);}
	.st40{fill:url(#SVGID_16_);}
	.st41{fill:url(#SVGID_17_);}
	.st42{fill:url(#SVGID_18_);}
</style>
<g>
	<g>
		<g>
			<g>
				<path class="st0" d="M1078.9,858.86l-307.2,177.36c-12.75,7.36-23.09-0.45-23.09-17.46V779.85c0-17,10.34-36.75,23.09-44.12
					l307.2-177.36c12.75-7.36,23.09,0.45,23.09,17.46v238.92C1101.99,831.74,1091.65,851.5,1078.9,858.86z"/>
			</g>
			<g>
				<linearGradient id="SVGID_1_" gradientUnits="userSpaceOnUse" x1="925.2998" y1="962.1514" x2="925.2998" y2="726.1998">
					<stop  offset="9.313420e-03" style="stop-color:#174159"/>
					<stop  offset="1" style="stop-color:#45677A"/>
				</linearGradient>
				<polygon class="st1" points="1093.24,811.11 757.36,1005.03 757.36,772.2 1093.24,578.27 				"/>
			</g>
		</g>
		<g>
			<linearGradient id="SVGID_2_" gradientUnits="userSpaceOnUse" x1="812.5494" y1="1051.6333" x2="898.0258" y2="714.1804">
				<stop  offset="9.313420e-03" style="stop-color:#BEC8D2"/>
				<stop  offset="1" style="stop-color:#F2F2F2"/>
			</linearGradient>
			<path class="st2" d="M748.61,1018.77V779.85c0-17,10.34-36.75,23.09-44.12l307.2-177.36c5.85-3.38,11.19-3.55,15.26-1.12l0-0.01
				l-19.04-11.18c-4.09-2.56-9.51-2.43-15.46,1l-307.2,177.36c-12.75,7.36-23.09,27.11-23.09,44.12v238.92
				c0,9.22,3.04,15.73,7.86,18.59l19.42,11.41l0-0.01C751.73,1034.66,748.61,1028.1,748.61,1018.77z"/>
			<polygon class="st3" points="771.7,735.73 752.46,724.43 1059.66,547.06 1078.9,558.37 			"/>
		</g>
	</g>
	<g>
		<g>
			<g>
				<polygon class="st3" points="1142.8,840.26 806.91,1033.71 806.91,800.88 1142.8,607.43 				"/>
				<polygon class="st4" points="1142.8,615.01 806.91,808.46 806.91,800.88 1142.8,607.43 				"/>
				<polygon class="st5" points="1142.8,631.51 806.91,824.96 806.91,808.46 1142.8,615.01 				"/>
				<linearGradient id="SVGID_3_" gradientUnits="userSpaceOnUse" x1="974.856" y1="1021.8066" x2="974.856" y2="662.0055">
					<stop  offset="9.313420e-03" style="stop-color:#5620D8"/>
					<stop  offset="1" style="stop-color:#45677A"/>
				</linearGradient>
				<path class="st6" d="M806.91,824.96v208.75l19.19-11.08c15.09-8.71,24.39-24.82,24.39-42.25v-105.8l43.58-25.16v74.63
					c0,13.81,9.76,19.37,21.79,12.42h0c12.03-6.95,21.79-23.78,21.79-37.59v-21.06c0-13.81,9.76-30.64,21.79-37.59h0
					c12.04-6.95,21.79-1.39,21.79,12.42v43.99c0,16.18,17.52,26.3,31.53,18.2l130.03-74.6V631.51L806.91,824.96z"/>
			</g>
			<g>
				<g>
					<path class="st7" d="M889.64,923.13l0-31.51h-13.12l0,31.51c-0.03,0.99,0.6,1.97,1.9,2.72c2.55,1.47,6.71,1.47,9.28-0.02
						C889,925.09,889.64,924.11,889.64,923.13z"/>
					<path class="st8" d="M887.73,888.93c2.55,1.47,2.54,3.87-0.03,5.36c-2.57,1.48-6.72,1.49-9.28,0.02
						c-2.55-1.47-2.54-3.87,0.03-5.36C881.02,887.47,885.18,887.46,887.73,888.93z"/>
				</g>
				<path class="st5" d="M907.74,852.71c-1.14-0.66-2.62-0.56-4.06,0.27l-47.1,27.64l1.44,2.46l47.09-27.64
					c0.61-0.35,1.03-0.36,1.2-0.26c0.17,0.1,0.36,0.45,0.36,1.14v4.24c0,1.82-1.4,4.23-2.99,5.15l-17.62,10.24
					c-2.48,1.43-4.41,4.78-4.41,7.62l0.01,8.1c0.02,0.2,0.14,0.39,0.4,0.54c0.56,0.32,1.46,0.32,2.02,0
					c0.26-0.15,0.39-0.34,0.41-0.54l0.01-8.1c0-1.82,1.4-4.23,2.99-5.15l17.62-10.24c2.47-1.43,4.41-4.78,4.41-7.62v-4.24
					C909.53,854.68,908.87,853.36,907.74,852.71z"/>
				<path class="st9" d="M906.6,862.3c0-4.87-3.44-10.81-7.69-13.26c-2.26-1.31-4.29-1.35-5.7-0.37l-0.01-0.01l-41.36,23.88
					l10.92,18.73c0,0,30.42-17.83,41.34-23.91C905.59,866.53,906.6,864.87,906.6,862.3z"/>
				<g>
					<path class="st10" d="M849.61,877.46c0,4.87,3.44,10.81,7.69,13.26c4.25,2.45,7.69,0.49,7.69-4.38
						c0-4.87-3.44-10.81-7.69-13.26C853.05,870.62,849.61,872.58,849.61,877.46z"/>
					<path class="st4" d="M854.71,880.4c0,1.64,1.16,3.64,2.59,4.47c1.43,0.83,2.59,0.16,2.59-1.48s-1.16-3.64-2.59-4.47
						C855.87,878.1,854.71,878.76,854.71,880.4z"/>
					<path class="st5" d="M855.68,880.97c0,1.02,0.72,2.27,1.61,2.78c0.89,0.51,1.61,0.1,1.61-0.92s-0.72-2.27-1.61-2.78
						C856.41,879.53,855.68,879.95,855.68,880.97z"/>
				</g>
			</g>
		</g>
		<g>
			<polygon class="st11" points="802.69,798.37 802.69,1031.2 806.91,1033.71 806.91,800.88 			"/>
			<polygon class="st12" points="802.69,798.37 806.91,800.88 1142.8,607.43 1138.58,604.45 			"/>
		</g>
	</g>
	<g>
		<g>
			<polygon class="st3" points="1122.31,699.11 902.65,825.93 902.65,805.12 1122.31,678.3 			"/>
			<text transform="matrix(0.8715 -0.5031 0 1 969.2377 780.5649)" class="st4 st13 st14">www.devcorner.com</text>
		</g>
		<polygon class="st15" points="900.14,803.67 902.65,805.12 1122.31,678.3 1119.8,676.85 		"/>
		<polygon class="st5" points="902.65,825.93 900.14,824.48 900.14,803.67 902.65,805.12 		"/>
	</g>
	<g>
		<linearGradient id="SVGID_4_" gradientUnits="userSpaceOnUse" x1="855.8951" y1="674.4708" x2="775.7615" y2="607.6927">
			<stop  offset="9.313420e-03" style="stop-color:#174159"/>
			<stop  offset="1" style="stop-color:#2D80EA"/>
		</linearGradient>
		<polygon class="st16" points="833.44,632.72 748.61,681.7 748.61,608.1 833.44,559.12 		"/>
		<polygon class="st17" points="833.44,559.12 748.61,608.1 743.86,605.52 828.69,556.55 		"/>
		<polygon class="st18" points="743.86,679.13 748.61,681.7 748.61,608.1 743.86,605.52 		"/>
		<line class="st18" x1="783" y1="621.37" x2="778.26" y2="618.8"/>
		<g>
			<path class="st3" d="M818.2,610.06c0-0.01,0-0.02,0-0.03c0-11.71-8.27-16.42-18.47-10.53c-7.4,4.27-13.78,12.96-16.73,21.87
				c-1.48,0.22-3.09,0.79-4.77,1.76c-7.5,4.33-13.58,14.82-13.58,23.43c0,8.61,6.08,12.07,13.58,7.74l39.41-22.75
				c5.1-2.94,9.24-10.08,9.24-15.93C826.88,609.98,823.04,607.6,818.2,610.06z"/>
			<g>
				<path class="st5" d="M818.21,610.03c0,0.01,0,0.02,0,0.03c2.3-1.17,4.36-1.23,5.9-0.39l0-0.02l-4.58-2.47
					c-0.48-0.29-1.01-0.47-1.58-0.57C818.11,607.68,818.21,608.81,818.21,610.03z"/>
				<path class="st19" d="M764.65,646.56c0-8.61,6.08-19.09,13.58-23.43c1.68-0.97,3.28-1.54,4.77-1.76
					c2.95-8.92,9.33-17.6,16.73-21.87c4.98-2.88,9.5-3.22,12.82-1.46v-0.01l-4.68-2.53c-3.33-1.79-7.87-1.47-12.88,1.43
					c-7.4,4.27-13.78,12.96-16.73,21.87c-1.48,0.22-3.09,0.79-4.77,1.76c-7.5,4.33-13.58,14.82-13.58,23.43
					c0,4.3,1.52,7.31,3.97,8.71l4.98,2.7v-0.02C766.27,654.04,764.65,650.99,764.65,646.56z"/>
			</g>
		</g>
	</g>
	<g>
		<linearGradient id="SVGID_5_" gradientUnits="userSpaceOnUse" x1="920.7048" y1="674.4708" x2="840.5712" y2="607.6927">
			<stop  offset="9.313420e-03" style="stop-color:#5620D8"/>
			<stop  offset="1" style="stop-color:#2D80EA"/>
		</linearGradient>
		<polygon class="st20" points="898.25,632.72 813.42,681.7 813.42,608.1 898.25,559.12 		"/>
		<polygon class="st17" points="898.25,559.12 813.42,608.1 808.67,605.52 893.5,556.55 		"/>
		<polygon class="st18" points="808.67,679.13 813.42,681.7 813.42,608.1 808.67,605.52 		"/>
		<line class="st18" x1="847.81" y1="621.37" x2="843.07" y2="618.8"/>
	</g>
	<g>
		<polygon class="st4" points="1161.01,732.37 1031.32,807.89 1028.85,806.48 1158.54,730.96 		"/>
		<polygon class="st4" points="1031.32,807.89 1031.73,917.97 1029.26,916.55 1028.85,806.48 		"/>
		<g>
			<linearGradient id="SVGID_6_" gradientUnits="userSpaceOnUse" x1="1096.3676" y1="910.5096" x2="1096.3676" y2="571.9373">
				<stop  offset="0" style="stop-color:#E148BE"/>
				<stop  offset="1" style="stop-color:#FAE54E"/>
			</linearGradient>
			<polygon class="st21" points="1159.72,841.49 1033.41,915.04 1033.02,808.85 1159.32,735.3 			"/>
			<g>
				<path class="st22" d="M1161.42,842.45l-129.69,75.52l-0.41-110.07l129.69-75.52L1161.42,842.45z M1035.1,912.11l122.92-71.58
					l-0.38-102.29l-122.92,71.58L1035.1,912.11z"/>
			</g>
		</g>
	</g>
	<g>
		<g>
			<g>
				
					<linearGradient id="SVGID_7_" gradientUnits="userSpaceOnUse" x1="853.8912" y1="592.5052" x2="805.3401" y2="685.9198" gradientTransform="matrix(0.866 -0.5 0 1.1547 198.7738 655.1171)">
					<stop  offset="9.313420e-03" style="stop-color:#5620D8"/>
					<stop  offset="1" style="stop-color:#E148BE"/>
				</linearGradient>
				<path class="st23" d="M921.89,1012.86c0-12.13-8.57-17.02-19.14-10.91c-10.57,6.1-19.14,20.89-19.14,33.02
					c0,10.28,6.16,15.36,14.47,12.95l4.68,6.6l4.68-12C915.73,1035.33,921.89,1023.14,921.89,1012.86z"/>
				<g>
					<path class="st3" d="M905.61,1024.18c0,1.82-1.29,4.04-2.87,4.95c-1.59,0.92-2.87,0.18-2.87-1.64s1.29-4.04,2.87-4.95
						C904.33,1021.63,905.61,1022.36,905.61,1024.18z"/>
					<path class="st3" d="M914.88,1018.83c0,1.82-1.29,4.04-2.87,4.95c-1.59,0.92-2.87,0.18-2.87-1.64s1.29-4.04,2.87-4.95
						C913.6,1016.28,914.88,1017.01,914.88,1018.83z"/>
					<path class="st3" d="M890.6,1032.85c0,1.82,1.29,2.55,2.87,1.64c1.59-0.92,2.87-3.13,2.87-4.95s-1.29-2.55-2.87-1.64
						C891.88,1028.82,890.6,1031.03,890.6,1032.85z"/>
				</g>
			</g>
			<g>
				<path class="st24" d="M883.6,1034.97c0-12.13,8.57-26.92,19.14-33.02c5.27-3.04,10.05-3.35,13.51-1.4
					c-1-0.57-5.15-2.97-5.15-2.97c-3.46-1.93-8.22-1.62-13.47,1.42c-10.57,6.1-19.14,20.89-19.14,33.02c0,6,2.1,10.22,5.5,12.23
					l5.23,3.02C885.74,1045.29,883.6,1041.04,883.6,1034.97z"/>
				<path class="st24" d="M916.47,1000.68L916.47,1000.68c0-0.01-0.06-0.04-0.15-0.1C916.36,1000.62,916.41,1000.65,916.47,1000.68z
					"/>
				<path class="st24" d="M898.7,1048.82l-0.64-0.9c-0.91,0.26-1.8,0.43-2.65,0.52l2.22,3.12l5.11,2.95L898.7,1048.82L898.7,1048.82
					z"/>
			</g>
		</g>
		<g>
			<g>
				
					<linearGradient id="SVGID_8_" gradientUnits="userSpaceOnUse" x1="898.5242" y1="611.9767" x2="849.973" y2="705.3915" gradientTransform="matrix(0.866 -0.5 0 1.1547 198.7738 655.1171)">
					<stop  offset="9.313420e-03" style="stop-color:#5620D8"/>
					<stop  offset="1" style="stop-color:#E148BE"/>
				</linearGradient>
				<path class="st25" d="M969.3,985.49c0-12.13-8.57-17.02-19.14-10.92c-10.57,6.1-19.14,20.89-19.14,33.02
					c0,10.28,6.16,15.36,14.47,12.95l4.68,6.6l4.68-12C963.15,1007.95,969.3,995.77,969.3,985.49z"/>
				<path class="st3" d="M950.16,1006.2c5.16-5.31,9.15-16.68,6.04-18.3c-2.4-1.25-6.04,7.04-6.04,7.04s-3.64-4.09-6.04-0.06
					C941.01,1000.08,945,1006.84,950.16,1006.2z"/>
			</g>
			<g>
				<path class="st24" d="M931.01,1007.59c0-12.13,8.57-26.92,19.14-33.02c5.27-3.04,10.05-3.35,13.51-1.4
					c-1-0.57-5.15-2.97-5.15-2.97c-3.46-1.93-8.22-1.62-13.47,1.42c-10.57,6.1-19.14,20.89-19.14,33.02c0,6,2.1,10.23,5.5,12.23
					l5.23,3.02C933.16,1017.92,931.01,1013.66,931.01,1007.59z"/>
				<path class="st24" d="M963.88,973.31L963.88,973.31c0-0.01-0.06-0.04-0.15-0.1C963.78,973.24,963.83,973.28,963.88,973.31z"/>
				<path class="st24" d="M946.12,1021.44l-0.64-0.9c-0.91,0.26-1.8,0.43-2.65,0.52l2.22,3.12l5.11,2.95L946.12,1021.44
					L946.12,1021.44z"/>
			</g>
		</g>
		<g>
			<g>
				
					<linearGradient id="SVGID_9_" gradientUnits="userSpaceOnUse" x1="943.1569" y1="631.4485" x2="894.6058" y2="724.8632" gradientTransform="matrix(0.866 -0.5 0 1.1547 198.7738 655.1171)">
					<stop  offset="9.313420e-03" style="stop-color:#5620D8"/>
					<stop  offset="1" style="stop-color:#E148BE"/>
				</linearGradient>
				<path class="st26" d="M1016.72,958.11c0-12.13-8.57-17.02-19.14-10.92c-10.57,6.1-19.14,20.89-19.14,33.02
					c0,10.28,6.16,15.36,14.47,12.95l4.68,6.6l4.68-12C1010.56,980.57,1016.72,968.39,1016.72,958.11z"/>
				<g>
					<path class="st3" d="M994.1,971.24c0,2.18-1.11,4.59-2.49,5.39c-1.37,0.79-2.49-0.33-2.49-2.51c0-2.18,1.11-4.59,2.49-5.39
						C992.98,967.94,994.1,969.06,994.1,971.24z"/>
					<path class="st3" d="M1001.05,967.23c0,2.18,1.11,3.31,2.49,2.51c1.37-0.79,2.49-3.21,2.49-5.39c0-2.18-1.11-3.31-2.49-2.51
						C1002.16,962.64,1001.05,965.05,1001.05,967.23z"/>
					<g>
						<path class="st3" d="M997.57,975.49c-1.42,0.82-2.58,0.16-2.58-1.47c0-0.29,0.2-0.64,0.46-0.79c0.25-0.15,0.46-0.03,0.46,0.26
							c0,1.06,0.75,1.48,1.67,0.95c0.92-0.53,1.67-1.82,1.67-2.88c0-0.29,0.2-0.64,0.46-0.79c0.25-0.15,0.46-0.03,0.46,0.26
							C1000.15,972.67,999,974.67,997.57,975.49z"/>
					</g>
				</g>
			</g>
			<g>
				<path class="st24" d="M978.43,980.22c0-12.13,8.57-26.92,19.14-33.02c5.27-3.04,10.05-3.35,13.51-1.4
					c-1-0.57-5.15-2.97-5.15-2.97c-3.46-1.93-8.22-1.62-13.47,1.42c-10.57,6.1-19.14,20.89-19.14,33.02c0,6,2.1,10.23,5.5,12.23
					l5.23,3.02C980.58,990.54,978.43,986.29,978.43,980.22z"/>
				<path class="st24" d="M1011.3,945.93L1011.3,945.93c0-0.01-0.06-0.04-0.15-0.1C1011.2,945.87,1011.25,945.9,1011.3,945.93z"/>
				<path class="st24" d="M993.53,994.07l-0.64-0.9c-0.91,0.26-1.8,0.43-2.65,0.52l2.22,3.12l5.11,2.95L993.53,994.07L993.53,994.07
					z"/>
			</g>
		</g>
	</g>
	<g>
		<polygon class="st4" points="1190.22,749.23 1060.54,824.75 1058.07,823.34 1187.76,747.82 		"/>
		<polygon class="st4" points="1060.54,824.75 1060.95,934.82 1058.48,933.41 1058.07,823.34 		"/>
		<g>
			<linearGradient id="SVGID_10_" gradientUnits="userSpaceOnUse" x1="1131.6548" y1="852.0723" x2="1101.8361" y2="802.7173">
				<stop  offset="0" style="stop-color:#FFFFFF"/>
				<stop  offset="1" style="stop-color:#2D80EA"/>
			</linearGradient>
			<polygon class="st27" points="1188.93,858.34 1062.63,931.89 1062.24,825.71 1188.54,752.16 			"/>
			
				<ellipse transform="matrix(0.5015 -0.8652 0.8652 0.5015 -179.0828 1400.4019)" class="st7" cx="1125.64" cy="855.6" rx="24.25" ry="14"/>
			<linearGradient id="SVGID_11_" gradientUnits="userSpaceOnUse" x1="1131.7484" y1="884.7719" x2="1113.9258" y2="856.9896">
				<stop  offset="0" style="stop-color:#174159"/>
				<stop  offset="1" style="stop-color:#F2F2F2"/>
			</linearGradient>
			<polygon class="st28" points="1188.79,818.82 1062.48,892.37 1062.63,931.89 1188.93,858.34 			"/>
			<linearGradient id="SVGID_12_" gradientUnits="userSpaceOnUse" x1="1122.8196" y1="890.4998" x2="1104.9971" y2="862.7176">
				<stop  offset="0" style="stop-color:#174159"/>
				<stop  offset="1" style="stop-color:#FAE54E"/>
			</linearGradient>
			<polygon class="st29" points="1108.47,865.59 1062.63,931.89 1188.93,858.34 1142.8,845.6 			"/>
			<g>
				<polygon class="st30" points="1188.79,818.77 1188.69,798.54 1170.66,829.41 				"/>
				<polygon class="st30" points="1178.48,824.84 1169.35,820.02 1160.33,835.45 				"/>
			</g>
			<g>
				<polygon class="st30" points="1062.48,892.32 1062.43,872.07 1080.61,881.85 				"/>
				<polygon class="st30" points="1072.79,886.38 1081.85,870.97 1090.94,875.86 				"/>
			</g>
			<g>
				<path class="st22" d="M1190.63,859.3l-129.69,75.52l-0.41-110.07l129.69-75.52L1190.63,859.3z M1064.31,928.96l122.92-71.58
					l-0.38-102.29l-122.92,71.58L1064.31,928.96z"/>
			</g>
		</g>
	</g>
	<g>
		<g>
			<linearGradient id="SVGID_13_" gradientUnits="userSpaceOnUse" x1="1068.5266" y1="1051.0581" x2="1068.5266" y2="912.2067">
				<stop  offset="0" style="stop-color:#E148BE"/>
				<stop  offset="1" style="stop-color:#FAE54E"/>
			</linearGradient>
			<polygon class="st31" points="1101.19,1001.27 1035.86,1038.99 1035.86,979.12 1101.19,941.4 			"/>
		</g>
		<polygon class="st32" points="1101.19,941.4 1035.86,979.12 1031.42,976.71 1096.75,938.99 		"/>
		<polygon class="st33" points="1031.42,1036.58 1035.86,1038.99 1035.86,979.12 1031.42,976.71 		"/>
		<g>
			<polygon class="st34" points="1065.67,1006.82 1061.23,1004.41 1061.23,983.38 1080.17,982.96 1084.61,985.37 1065.67,985.79 			
				"/>
			<polygon class="st3" points="1084.61,985.37 1065.67,985.79 1065.67,1006.82 			"/>
		</g>
	</g>
	<g>
		<g>
			<linearGradient id="SVGID_14_" gradientUnits="userSpaceOnUse" x1="1148.6012" y1="1159.1731" x2="1148.6012" y2="1016.5008">
				<stop  offset="0" style="stop-color:#174159"/>
				<stop  offset="1" style="stop-color:#F2F2F2"/>
			</linearGradient>
			<path class="st35" d="M1119,936.58v94.22c-2.44,13.57,9.74,15.15,9.74,15.15l49.77-28.74v-17.56v-97.44L1119,936.58z"/>
			<g>
				<polygon class="st5" points="1169.42,952.7 1128.11,976.54 1128.11,972.85 1169.42,949 				"/>
				<polygon class="st5" points="1169.42,959.67 1128.11,983.52 1128.11,979.83 1169.42,955.98 				"/>
				<polygon class="st5" points="1169.42,966.65 1128.11,990.5 1128.11,986.81 1169.42,962.96 				"/>
				<polygon class="st5" points="1169.42,973.63 1128.11,997.48 1128.11,993.78 1169.42,969.93 				"/>
				<polygon class="st5" points="1169.42,980.6 1128.11,1004.45 1128.11,1000.76 1169.42,976.91 				"/>
				<polygon class="st5" points="1169.42,987.58 1128.11,1011.43 1128.11,1007.74 1169.42,983.89 				"/>
				<polygon class="st5" points="1169.42,994.56 1128.11,1018.41 1128.11,1014.71 1169.42,990.86 				"/>
				<g>
					<text transform="matrix(0.8715 -0.5031 0 1 1143.046 956.5189)" class="st5 st36 st37">T</text>
				</g>
			</g>
		</g>
		<polygon class="st5" points="1116.57,1034.02 1119,1034.02 1119,936.58 1116.57,935.17 		"/>
		<polygon class="st38" points="1116.57,935.17 1119,936.58 1178.52,902.22 1176.08,900.81 		"/>
		<g>
			<path class="st5" d="M1126.56,1046.52c-1.05,0-2.18-0.33-3.33-1c-3.74-2.16-6.67-7.21-6.67-11.5h2.44c0,3.39,2.49,7.69,5.45,9.39
				c1.21,0.7,2.34,0.86,3.08,0.43c0.73-0.42,1.15-1.45,1.15-2.83c0-3.39-2.49-7.69-5.45-9.39l1.22-2.11
				c3.74,2.16,6.67,7.21,6.67,11.5c0,2.3-0.84,4.05-2.37,4.94C1128.09,1046.33,1127.35,1046.52,1126.56,1046.52z"/>
		</g>
		<path class="st38" d="M1183.97,995.15l-59.52,34.36c2.89,1.67,5.29,5.06,6.23,8.5l0,0l0,0c0.28,1.01,0.43,2.02,0.43,2.99
			c0,2.3-0.84,4.05-2.37,4.94l59.52-34.36c1.53-0.88,2.37-2.64,2.37-4.94C1190.63,1002.36,1187.7,997.3,1183.97,995.15z"/>
	</g>
	<g>
		<g>
			<path class="st4" d="M998.75,609.97c6.06-3.5,10.98-11.98,10.98-18.94c0-6.96-4.92-9.76-10.98-6.26
				c-0.83,0.48-1.63,1.06-2.41,1.71c-0.95,5.24-4.17,10.8-8.28,14.22c-0.18,1.02-0.29,2.03-0.29,3.01
				C987.77,610.67,992.69,613.47,998.75,609.97z"/>
			<path class="st4" d="M1018.57,563.29L1018.57,563.29l-0.03-0.02C1018.56,563.28,1018.57,563.29,1018.57,563.29z"/>
			<path class="st4" d="M970.78,613.52L970.78,613.52c0-6,22.8-45.25,27.97-48.24c7.71-4.45,14.69-4.9,19.75-2.03l-12.14-6.96
				c-5.12-3.52-12.5-3.32-20.72,1.42c-15.45,8.92-27.97,30.51-27.97,48.24l0,0c0,10.44,2.85,22.44,13.97,28.6l12.69,7.32
				C973.57,635.65,970.78,623.83,970.78,613.52z"/>
			<path class="st4" d="M984.84,642.17l0.06,0.03l0,0C984.88,642.19,984.86,642.18,984.84,642.17z"/>
		</g>
		<linearGradient id="SVGID_15_" gradientUnits="userSpaceOnUse" x1="984.9672" y1="650.0673" x2="1022.363" y2="511.1687">
			<stop  offset="0" style="stop-color:#2D80EA"/>
			<stop  offset="1" style="stop-color:#FAE54E"/>
		</linearGradient>
		<path class="st39" d="M998.75,565.28c-15.45,8.92-27.97,30.51-27.97,48.24l0,0c0,13.91,5.06,30.57,27.97,32.55
			c22.9-28.42,27.96-50.93,27.97-64.84c0,0,0,0,0-0.01C1026.72,563.5,1014.19,556.36,998.75,565.28z M998.75,609.97
			c-6.06,3.5-10.98,0.7-10.98-6.26s4.92-15.44,10.98-18.94c6.06-3.5,10.98-0.7,10.98,6.26
			C1009.73,597.99,1004.81,606.47,998.75,609.97z"/>
	</g>
	<g>
		<g>
			<polygon class="st19" points="831.29,642.05 836.36,636.07 836.36,636.07 848.77,621.45 844.03,618.88 826.54,639.47 
				826.54,642.47 831.29,645.04 831.29,642.58 831.29,642.58 			"/>
			<path class="st5" d="M839.06,639.05c0.94-0.29,1.77-0.44,2.5-0.46l6.13,0.28c0.27-0.01,0.46,0.06,0.62,0.17l0.03-0.02l-4.8-2.6
				l0,0.03c-0.16-0.09-0.35-0.15-0.6-0.15l-1.08-0.05l-0.3,0.36C840.83,637.45,839.99,638.26,839.06,639.05z"/>
		</g>
		<path class="st19" d="M864.03,606.87c0.29-1.01,0.73-1.91,1.32-2.69c0.59-0.79,1.27-1.4,2.05-1.85l2.85-1.64l0,0l-4.74-2.57
			l-2.85,1.65c-0.78,0.45-1.46,1.07-2.05,1.85c-0.59,0.79-1.03,1.68-1.32,2.69l-12.26,44.01l4.74,2.57l0-0.01L864.03,606.87z"/>
		<g>
			<path class="st19" d="M868.96,611.14l0,0.03l4.87,2.64v0c-0.13-0.06-0.24-0.14-0.32-0.25c-0.17-0.23-0.25-0.53-0.25-0.91v-5.33
				l17.48,0.41l-4.74-2.57l-16.87-0.39l-0.61,2.21v3.1c0,0.38,0.08,0.68,0.25,0.91C868.8,611.05,868.88,611.09,868.96,611.14z"/>
			<path class="st19" d="M873.5,624.77c0.17-0.42,0.44-0.85,0.83-1.28l6.13-7.35c0.73-0.84,1.57-1.65,2.5-2.44
				c-0.94,0.29-1.77,0.44-2.5,0.45l-5.06-0.21l-5.81,6.97c-0.39,0.44-0.67,0.87-0.83,1.28c-0.17,0.42-0.25,0.82-0.25,1.2v5.33
				l4.74,2.57v-5.33C873.25,625.59,873.33,625.19,873.5,624.77z"/>
		</g>
		<g>
			<path class="st3" d="M841.56,636.61c-0.73,0.84-1.57,1.65-2.5,2.44c0.94-0.29,1.77-0.44,2.5-0.46l6.13,0.28
				c0.39-0.01,0.67,0.1,0.83,0.32c0.17,0.23,0.25,0.53,0.25,0.91v5.33l-17.48-0.38v-3l17.48-20.6v5.33c0,0.38-0.08,0.78-0.25,1.2
				c-0.17,0.42-0.44,0.85-0.83,1.31L841.56,636.61z"/>
			<path class="st3" d="M858.12,644.46c-0.16,0.54-0.36,1.05-0.61,1.54c-0.25,0.49-0.53,0.94-0.84,1.35
				c-0.31,0.41-0.64,0.77-0.99,1.09c-0.35,0.32-0.7,0.58-1.05,0.78l-2.85,1.64l12.26-44.01c0.29-1.01,0.73-1.91,1.32-2.69
				c0.59-0.79,1.27-1.4,2.05-1.85l2.85-1.65L858.12,644.46z"/>
			<path class="st3" d="M890.73,607.73v3l-17.48,20.57v-5.33c0-0.38,0.08-0.78,0.25-1.2c0.17-0.42,0.44-0.85,0.83-1.28l6.13-7.35
				c0.73-0.84,1.57-1.65,2.5-2.44c-0.94,0.29-1.77,0.44-2.5,0.45l-6.13-0.25c-0.39-0.01-0.67-0.12-0.83-0.35
				c-0.17-0.23-0.25-0.53-0.25-0.91v-5.33L890.73,607.73z"/>
		</g>
	</g>
	<g>
		<g>
			
				<rect x="878" y="747.48" transform="matrix(0.5016 -0.8651 0.8651 0.5016 -205.8247 1149.0747)" class="st24" width="32.68" height="11.38"/>
		</g>
		<g>
			<linearGradient id="SVGID_16_" gradientUnits="userSpaceOnUse" x1="877.2766" y1="988.0126" x2="877.2766" y2="751.1764">
				<stop  offset="0" style="stop-color:#2D80EA"/>
				<stop  offset="1" style="stop-color:#E148BE"/>
			</linearGradient>
			<path class="st40" d="M866.85,811.43c-2.73,0-5.51-1.04-7.73-3.29c-0.66-0.67-1.22-1.43-1.66-2.26
				c-1.82-3.43-1.72-7.33,0.14-10.54l0,0l20.81-35.89c2.96-5.1,9.47-6.86,14.59-3.94l0,0c5.17,2.95,6.95,9.54,3.97,14.69
				l-20.81,35.89C874.17,809.51,870.55,811.43,866.85,811.43z M867.44,801.05C867.44,801.04,867.44,801.04,867.44,801.05
				L867.44,801.05L867.44,801.05z"/>
		</g>
		<g>
			<g>
				<linearGradient id="SVGID_17_" gradientUnits="userSpaceOnUse" x1="912.7314" y1="745.9283" x2="957.7625" y2="637.4062">
					<stop  offset="9.313420e-03" style="stop-color:#174159"/>
					<stop  offset="1" style="stop-color:#2D80EA"/>
				</linearGradient>
				<path class="st41" d="M916.18,749.42c-4.74,0-8.28-1.43-10.51-2.72c-4.23-2.44-11.32-8.76-11.32-23.62
					c0-20.61,14.06-44.87,32.01-55.23c13.03-7.52,22.12-4.52,26.38-2.07c4.23,2.44,11.32,8.76,11.32,23.62
					c0,20.61-14.06,44.87-32.01,55.23C925.83,748.22,920.5,749.42,916.18,749.42z M942.3,674.47c-3.01,0-6.55,1.09-10.25,3.23
					c-14.27,8.24-26.32,29.02-26.32,45.38c0,6.68,2.05,11.7,5.63,13.77c3.63,2.09,9.09,1.34,15-2.07
					c14.27-8.24,26.32-29.02,26.32-45.38c0-6.68-2.05-11.7-5.63-13.77C945.69,674.86,944.08,674.47,942.3,674.47z"/>
			</g>
			<g>
				<path class="st24" d="M894.35,723.08c0-20.61,14.06-44.87,32.01-55.23c13.03-7.52,22.12-4.52,26.38-2.07l-13.95-8.05
					c-4.26-2.46-13.35-5.46-26.38,2.07c-17.95,10.36-32.01,34.62-32.01,55.23c0,14.87,7.09,21.18,11.32,23.62l13.95,8.05
					C901.44,744.26,894.35,737.94,894.35,723.08z"/>
				<path class="st24" d="M911.36,736.84c3.63,2.09,9.09,1.34,15-2.07c14.27-8.24,26.32-29.02,26.32-45.38
					c0-6.68-2.05-11.7-5.63-13.77c-1.35-0.78-2.96-1.16-4.75-1.16c-1.33,0-2.77,0.23-4.27,0.65c0.46,1.85,0.71,3.94,0.71,6.23
					c0,16.36-12.05,37.14-26.32,45.38c-2.07,1.19-4.07,2.05-5.97,2.58C907.32,732.85,909.01,735.49,911.36,736.84z"/>
			</g>
			<path class="st5" d="M950.74,688.17c0,16.79-11.86,37.25-26.49,45.7c-14.63,8.45-26.49,1.69-26.49-15.11
				c0-16.79,11.86-37.25,26.49-45.7C938.88,664.62,950.74,671.38,950.74,688.17z"/>
			<g>
				<linearGradient id="SVGID_18_" gradientUnits="userSpaceOnUse" x1="945.4288" y1="599.2081" x2="918.0405" y2="779.8398">
					<stop  offset="0" style="stop-color:#2D80EA"/>
					<stop  offset="1" style="stop-color:#E148BE"/>
				</linearGradient>
				<path class="st42" d="M916.18,749.42c-4.74,0-8.28-1.43-10.51-2.72c-4.23-2.44-11.32-8.76-11.32-23.62
					c0-20.61,14.06-44.87,32.01-55.23c13.03-7.52,22.12-4.52,26.38-2.07c4.23,2.44,11.32,8.76,11.32,23.62
					c0,20.61-14.06,44.87-32.01,55.23C925.83,748.22,920.5,749.42,916.18,749.42z M942.3,674.47c-3.01,0-6.55,1.09-10.25,3.23
					c-14.27,8.24-26.32,29.02-26.32,45.38c0,6.68,2.05,11.7,5.63,13.77c3.63,2.09,9.09,1.34,15-2.07
					c14.27-8.24,26.32-29.02,26.32-45.38c0-6.68-2.05-11.7-5.63-13.77C945.69,674.86,944.08,674.47,942.3,674.47z"/>
			</g>
			<path class="st5" d="M945.61,682.94c0.59,2.56,0.64,5.07,0.44,7.46c-0.21,2.4-0.7,4.7-1.37,6.92c-1.33,4.43-3.39,8.5-5.83,12.22
				c1.53-4.18,2.55-8.5,2.81-12.77c0.13-2.13,0.08-4.25-0.21-6.28c-0.29-2.02-0.83-3.95-1.65-5.59c-0.77-1.53-0.15-3.39,1.37-4.16
				c1.53-0.77,3.39-0.15,4.16,1.37c0.11,0.22,0.19,0.45,0.25,0.68L945.61,682.94z"/>
		</g>
	</g>
</g>
</svg>
